<?xml version="1.0" encoding="UTF-8" standalone="no"?>
<svg width="256" height="256" viewBox="0 0 256 256" xmlns="http://www.w3.org/2000/svg" xmlns:xlink="http://www.w3.org/1999/xlink">
<!-- created via a Python script - do not edit this SVG file directly -->
<path d="M 24 49 L 112 49 A 8 8 0 0 1 120 57 L 120 209 A 8 8 0 0 1 112 217 L 24 217 A 8 8 0 0 1 16 209 L 16 57 A 8 8 0 0 1 24 49 z" fill="#b0b0b0" />
<path d="M 136 49 L 240 49 A 8 8 0 0 1 248 57 L 248 129 A 8 8 0 0 1 240 137 L 136 137 A 8 8 0 0 1 128 129 L 128 57 A 8 8 0 0 1 136 49 z" fill="#b0b0b0" />
<path d="M 136 145 L 176 145 A 8 8 0 0 1 184 153 L 184 209 A 8 8 0 0 1 176 217 L 136 217 A 8 8 0 0 1 128 209 L 128 153 A 8 8 0 0 1 136 145 z" fill="#b0b0b0" />
<path d="M 200 145 L 240 145 A 8 8 0 0 1 248 153 L 248 209 A 8 8 0 0 1 240 217 L 200 217 A 8 8 0 0 1 192 209 L 192 153 A 8 8 0 0 1 200 145 z" fill="#b0b0b0" />
<path d="M 20 45 L 108 45 A 8 8 0 0 1 116 53 L 116 205 A 8 8 0 0 1 108 213 L 20 213 A 8 8 0 0 1 12 205 L 12 53 A 8 8 0 0 1 20 45 z" fill="#268bd2" />
<path d="M 132 45 L 236 45 A 8 8 0 0 1 244 53 L 244 125 A 8 8 0 0 1 236 133 L 132 133 A 8 8 0 0 1 124 125 L 124 53 A 8 8 0 0 1 132 45 z" fill="#dc322f" />
<path d="M 132 141 L 172 141 A 8 8 0 0 1 180 149 L 180 205 A 8 8 0 0 1 172 213 L 132 213 A 8 8 0 0 1 124 205 L 124 149 A 8 8 0 0 1 132 141 z" fill="#859900" />
<path d="M 196 141 L 236 141 A 8 8 0 0 1 244 149 L 244 205 A 8 8 0 0 1 236 213 L 196 213 A 8 8 0 0 1 188 205 L 188 149 A 8 8 0 0 1 196 141 z" fill="#859900" />
<path d="M 154 80 L 140.5649711574556 66.5649711574556 A 4.0 4.0 0 0 1 146.22182540694797 60.90811690796322 L 163.19238815542514 77.87867965644035 A 3 3 0 0 1 163.19238815542514 82.12132034355965 L 146.22182540694797 99.09188309203678 A 4.0 4.0 0 0 1 140.5649711574556 93.4350288425444 L 154 80 z" fill="#a52523" />
<path d="M 186 80 L 172.5649711574556 66.5649711574556 A 4.0 4.0 0 0 1 178.22182540694797 60.90811690796322 L 195.19238815542514 77.87867965644035 A 3 3 0 0 1 195.19238815542514 82.12132034355965 L 178.22182540694797 99.09188309203678 A 4.0 4.0 0 0 1 172.5649711574556 93.4350288425444 L 186 80 z" fill="#a52523" />
<path d="M 218 80 L 204.5649711574556 66.5649711574556 A 4.0 4.0 0 0 1 210.22182540694797 60.90811690796322 L 227.19238815542514 77.87867965644035 A 3 3 0 0 1 227.19238815542514 82.12132034355965 L 210.22182540694797 99.09188309203678 A 4.0 4.0 0 0 1 204.5649711574556 93.4350288425444 L 218 80 z" fill="#a52523" />
<path d="M 31.0 76.0 L 96.0 76.0 A 4.0 4.0 0 0 1 96.0 84.0 L 31.0 84.0 A 4.0 4.0 0 0 1 31.0 76.0 z" fill="#1c689d" />
<path d="M 31.0 108.0 L 96.0 108.0 A 4.0 4.0 0 0 1 96.0 116.0 L 31.0 116.0 A 4.0 4.0 0 0 1 31.0 108.0 z" fill="#1c689d" />
<path d="M 31.0 140.0 L 96.0 140.0 A 4.0 4.0 0 0 1 96.0 148.0 L 31.0 148.0 A 4.0 4.0 0 0 1 31.0 140.0 z" fill="#1c689d" />
<path d="M 31.0 172.0 L 80.0 172.0 A 4.0 4.0 0 0 1 80.0 180.0 L 31.0 180.0 A 4.0 4.0 0 0 1 31.0 172.0 z" fill="#1c689d" />
</svg>