<?xml version="1.0" encoding="UTF-8" standalone="no"?>
<svg width="256" height="256" viewBox="0 0 256 256" xmlns="http://www.w3.org/2000/svg" xmlns:xlink="http://www.w3.org/1999/xlink">
<!-- created via a Python script - do not edit this SVG file directly -->
<path d="M 24.0 49.0 L 112.0 49.0 A 8.0 8.0 0 0 1 120.0 57.0 L 120.0 209.0 A 8.0 8.0 0 0 1 112.0 217.0 L 24.0 217.0 A 8.0 8.0 0 0 1 16.0 209.0 L 16.0 57.0 A 8.0 8.0 0 0 1 24.0 49.0 z" fill="#b0b0b0" />
<path d="M 136.0 49.0 L 240.0 49.0 A 8.0 8.0 0 0 1 248.0 57.0 L 248.0 129.0 A 8.0 8.0 0 0 1 240.0 137.0 L 136.0 137.0 A 8.0 8.0 0 0 1 128.0 129.0 L 128.0 57.0 A 8.0 8.0 0 0 1 136.0 49.0 z" fill="#b0b0b0" />
<path d="M 136.0 145.0 L 176.0 145.0 A 8.0 8.0 0 0 1 184.0 153.0 L 184.0 209.0 A 8.0 8.0 0 0 1 176.0 217.0 L 136.0 217.0 A 8.0 8.0 0 0 1 128.0 209.0 L 128.0 153.0 A 8.0 8.0 0 0 1 136.0 145.0 z" fill="#b0b0b0" />
<path d="M 200.0 145.0 L 240.0 145.0 A 8.0 8.0 0 0 1 248.0 153.0 L 248.0 209.0 A 8.0 8.0 0 0 1 240.0 217.0 L 200.0 217.0 A 8.0 8.0 0 0 1 192.0 209.0 L 192.0 153.0 A 8.0 8.0 0 0 1 200.0 145.0 z" fill="#b0b0b0" />
<path d="M 20.0 45.0 L 108.0 45.0 A 8.0 8.0 0 0 1 116.0 53.0 L 116.0 205.0 A 8.0 8.0 0 0 1 108.0 213.0 L 20.0 213.0 A 8.0 8.0 0 0 1 12.0 205.0 L 12.0 53.0 A 8.0 8.0 0 0 1 20.0 45.0 z" fill="#268bd2" />
<path d="M 132.0 45.0 L 236.0 45.0 A 8.0 8.0 0 0 1 244.0 53.0 L 244.0 125.0 A 8.0 8.0 0 0 1 236.0 133.0 L 132.0 133.0 A 8.0 8.0 0 0 1 124.0 125.0 L 124.0 53.0 A 8.0 8.0 0 0 1 132.0 45.0 z" fill="#dc322f" />
<path d="M 132.0 141.0 L 172.0 141.0 A 8.0 8.0 0 0 1 180.0 149.0 L 180.0 205.0 A 8.0 8.0 0 0 1 172.0 213.0 L 132.0 213.0 A 8.0 8.0 0 0 1 124.0 205.0 L 124.0 149.0 A 8.0 8.0 0 0 1 132.0 141.0 z" fill="#859900" />
<path d="M 196.0 141.0 L 236.0 141.0 A 8.0 8.0 0 0 1 244.0 149.0 L 244.0 205.0 A 8.0 8.0 0 0 1 236.0 213.0 L 196.0 213.0 A 8.0 8.0 0 0 1 188.0 205.0 L 188.0 149.0 A 8.0 8.0 0 0 1 196.0 141.0 z" fill="#859900" />
<path d="M 154.0 80.0 L 140.5649711574556 66.5649711574556 A 4.0 4.0 0 0 1 146.22182540694797 60.90811690796322 L 163.19238815542514 77.87867965644035 A 3.0 3.0 0 0 1 163.19238815542514 82.12132034355965 L 146.22182540694797 99.09188309203678 A 4.0 4.0 0 0 1 140.5649711574556 93.4350288425444 L 154.0 80.0 z" fill="#a52523" />
<path d="M 186.0 80.0 L 172.5649711574556 66.5649711574556 A 4.0 4.0 0 0 1 178.22182540694797 60.90811690796322 L 195.19238815542514 77.87867965644035 A 3.0 3.0 0 0 1 195.19238815542514 82.12132034355965 L 178.22182540694797 99.09188309203678 A 4.0 4.0 0 0 1 172.5649711574556 93.4350288425444 L 186.0 80.0 z" fill="#a52523" />
<path d="M 218.0 80.0 L 204.5649711574556 66.5649711574556 A 4.0 4.0 0 0 1 210.22182540694797 60.90811690796322 L 227.19238815542514 77.87867965644035 A 3.0 3.0 0 0 1 227.19238815542514 82.12132034355965 L 210.22182540694797 99.09188309203678 A 4.0 4.0 0 0 1 204.5649711574556 93.4350288425444 L 218.0 80.0 z" fill="#a52523" />
<path d="M 31.0 76.0 L 96.0 76.0 A 4.0 4.0 0 0 1 96.0 84.0 L 31.0 84.0 A 4.0 4.0 0 0 1 31.0 76.0 z" fill="#1c689d" />
<path d="M 31.0 108.0 L 96.0 108.0 A 4.0 4.0 0 0 1 96.0 116.0 L 31.0 116.0 A 4.0 4.0 0 0 1 31.0 108.0 z" fill="#1c689d" />
<path d="M 31.0 140.0 L 96.0 140.0 A 4.0 4.0 0 0 1 96.0 148.0 L 31.0 148.0 A 4.0 4.0 0 0 1 31.0 140.0 z" fill="#1c689d" />
<path d="M 31.0 172.0 L 80.0 172.0 A 4.0 4.0 0 0 1 80.0 180.0 L 31.0 180.0 A 4.0 4.0 0 0 1 31.0 172.0 z" fill="#1c689d" />
</svg>